<svg width="34" height="34" viewBox="0 0 34 34" fill="none" xmlns="http://www.w3.org/2000/svg">
<g clip-path="url(#clip0_653_529)">
<path d="M9.53462 17.9542L17.7491 9.90607C19.3277 8.35943 21.859 8.38532 23.4057 9.96393C24.9523 11.5425 24.9264 14.0738 23.3478 15.6205L14.419 24.3685C13.4333 25.3342 11.8495 25.318 10.8837 24.3323C9.9179 23.3466 9.9341 21.7627 10.9198 20.7969L18.42 13.4486C18.8129 13.0637 19.4492 13.0702 19.8341 13.4631C20.2191 13.856 20.2125 14.4923 19.8197 14.8773L13.0338 21.5257L14.0836 22.5972L20.8694 15.9487C21.8552 14.9829 21.8714 13.3991 20.9056 12.4134C19.9398 11.4276 18.356 11.4114 17.3702 12.3772L9.87008 19.7255C8.29147 21.2721 8.26558 23.8034 9.81222 25.3821C11.3589 26.9607 13.8902 26.9865 15.4688 25.4399L24.3976 16.6919C26.569 14.5644 26.6046 11.0856 24.4771 8.91417C22.3496 6.74269 18.8708 6.70711 16.6993 8.83462L8.48487 16.8827L9.53462 17.9542Z" fill="black"/>
</g>
<defs>
<clipPath id="clip0_653_529">
<rect width="24" height="24" fill="white" transform="translate(16.7961 33.9395) rotate(-134.414)"/>
</clipPath>
</defs>
</svg>
