<svg width="24" height="24" viewBox="0 0 24 24" fill="none" xmlns="http://www.w3.org/2000/svg">
<path d="M20 3H19V1H17V3H7V1H5V3H4C2.9 3 2 3.9 2 5V21C2 22.1 2.9 23 4 23H20C21.1 23 22 22.1 22 21V5C22 3.9 21.1 3 20 3ZM20 21H4V8H20V21Z" fill="black"/>
<path d="M7.444 18.18C6.148 18.18 5.192 17.972 4.576 17.556C4.504 17.508 4.468 17.452 4.468 17.388C4.468 17.34 4.488 17.284 4.528 17.22L4.876 16.632C4.924 16.552 4.968 16.512 5.008 16.512C5.04 16.512 5.096 16.532 5.176 16.572C5.44 16.716 5.744 16.832 6.088 16.92C6.44 17.008 6.82 17.052 7.228 17.052C7.884 17.052 8.364 16.928 8.668 16.68C8.98 16.424 9.136 16.072 9.136 15.624C9.136 14.792 8.628 14.376 7.612 14.376H6.604C6.444 14.376 6.328 14.344 6.256 14.28C6.192 14.208 6.16 14.096 6.16 13.944V13.632C6.16 13.488 6.192 13.384 6.256 13.32C6.328 13.256 6.444 13.224 6.604 13.224H7.588C8.02 13.224 8.344 13.112 8.56 12.888C8.776 12.656 8.884 12.364 8.884 12.012C8.884 11.204 8.316 10.8 7.18 10.8C6.476 10.8 5.856 10.948 5.32 11.244C5.24 11.284 5.184 11.304 5.152 11.304C5.112 11.304 5.068 11.268 5.02 11.196L4.684 10.632C4.644 10.568 4.624 10.512 4.624 10.464C4.624 10.4 4.66 10.344 4.732 10.296C5.012 10.096 5.384 9.94 5.848 9.828C6.312 9.716 6.828 9.66 7.396 9.66C8.012 9.66 8.544 9.756 8.992 9.948C9.448 10.14 9.796 10.412 10.036 10.764C10.284 11.108 10.408 11.512 10.408 11.976C10.408 12.352 10.316 12.7 10.132 13.02C9.956 13.34 9.7 13.588 9.364 13.764C9.796 13.924 10.116 14.172 10.324 14.508C10.54 14.836 10.648 15.224 10.648 15.672C10.648 16.424 10.368 17.032 9.808 17.496C9.256 17.952 8.468 18.18 7.444 18.18ZM15.5533 18.18C14.2413 18.18 13.2493 17.816 12.5773 17.088C11.9133 16.352 11.5813 15.296 11.5813 13.92C11.5813 12.544 11.9133 11.492 12.5773 10.764C13.2493 10.028 14.2413 9.66 15.5533 9.66C16.8573 9.66 17.8453 10.028 18.5173 10.764C19.1893 11.5 19.5253 12.552 19.5253 13.92C19.5253 15.288 19.1893 16.34 18.5173 17.076C17.8453 17.812 16.8573 18.18 15.5533 18.18ZM16.9093 11.16C16.5653 10.92 16.1133 10.8 15.5533 10.8C14.7213 10.8 14.1013 11.06 13.6933 11.58C13.2933 12.1 13.0933 12.88 13.0933 13.92C13.0933 14.744 13.2613 15.38 13.5973 15.828L16.9093 11.16ZM15.5533 17.052C16.3853 17.052 17.0013 16.792 17.4013 16.272C17.8013 15.752 18.0013 14.968 18.0013 13.92C18.0013 13.112 17.8413 12.48 17.5213 12.024L14.1973 16.716C14.5573 16.94 15.0093 17.052 15.5533 17.052Z" fill="black"/>
</svg>
